<?xml version="1.0" encoding="utf-8"?>
<!-- Generator: Adobe Illustrator 16.0.0, SVG Export Plug-In . SVG Version: 6.00 Build 0)  -->
<!DOCTYPE svg PUBLIC "-//W3C//DTD SVG 1.1//EN" "http://www.w3.org/Graphics/SVG/1.1/DTD/svg11.dtd">
<svg version="1.1" xmlns="http://www.w3.org/2000/svg" xmlns:xlink="http://www.w3.org/1999/xlink" x="0px" y="0px"
	 width="595.28px" height="841.89px" viewBox="0 0 595.28 841.89" enable-background="new 0 0 595.28 841.89" xml:space="preserve">
<g id="Layer_1">
	<path d="M70.502,308.133c-0.139,0.107-0.268,0.225-0.401,0.339c0.053-0.433,0.18-0.799,0.325-1.16
		c0.372-0.932,0.339-1.83-0.244-2.667c-0.173-0.247-0.117-0.361,0.104-0.526c0.557-0.417,1.031-0.913,1.232-1.605
		c0.214-0.735-0.31-1.479-1.07-1.535c-0.491-0.036-0.987-0.007-1.385,0.294c-0.423,0.32-0.531,0.145-0.646-0.263
		c-0.125-0.444-0.405-0.801-0.778-1.085c-0.676-0.517-1.53-0.304-1.901,0.466c-0.32,0.66-0.228,1.342-0.125,2.019
		c0.037,0.248-0.018,0.325-0.246,0.383c-0.966,0.244-1.604,0.861-1.957,1.783c-0.39,1.019-0.775,2.04-1.162,3.06
		c-0.031,0.081-0.056,0.167-0.098,0.242c-0.045,0.08-0.122,0.142-0.216,0.115c-0.088-0.025-0.124-0.102-0.132-0.201
		c-0.021-0.247-0.047-0.494-0.09-0.737c-0.378-2.143-1.066-4.157-2.557-5.801c-1.663-1.832-3.855-1.727-4.82,0.814
		c-0.51,1.344-0.622,2.749-0.463,4.181c0.086,0.782,0.223,1.554,0.401,2.427c-0.244-0.202-0.412-0.335-0.573-0.476
		c-0.459-0.399-0.931-0.246-1.067,0.342c-0.044,0.189-0.054,0.375-0.054,0.566c0,1.186,0,2.373,0,3.559
		c0,3.53-0.002,7.06,0.003,10.589c0.001,0.658,0.081,1.294,0.778,1.632c0.369,0.178,0.761,0.195,1.156,0.195
		c5.023,0,10.047,0,15.071,0c0.132,0,0.264,0.001,0.396-0.008c1.088-0.076,1.578-0.591,1.578-1.687
		c0.003-4.819,0.001-9.637,0.001-14.456c0-0.176-0.001-0.349-0.069-0.518C71.311,307.964,70.884,307.837,70.502,308.133z
		 M68.659,303.319c0.306-0.495,0.694-0.9,1.256-1.101c0.108-0.038,0.255-0.076,0.333,0.019c0.093,0.113-0.037,0.213-0.099,0.302
		c-0.291,0.413-0.693,0.703-1.103,0.984c-0.058,0.04-0.13,0.058-0.181,0.08C68.718,303.545,68.527,303.531,68.659,303.319z
		 M66.934,300.898c0.522,0.565,0.535,1.232,0.411,1.926c-0.042,0.237-0.195,0.193-0.314,0.081
		C66.771,302.661,66.703,301.224,66.934,300.898z M63.549,307.698c0.324-0.874,0.648-1.748,0.982-2.618
		c0.405-1.057,1.188-1.375,2.244-0.941c0.483,0.198,0.978,0.369,1.47,0.547c0.769,0.279,1.182,0.783,1.187,1.511
		c-0.023,0.546-0.322,1.062-0.516,1.609c-0.146,0.41-0.313,0.813-0.453,1.225c-0.108,0.317-0.216,0.42-0.49,0.121
		c-0.294-0.323-0.631-0.608-0.95-0.908c-0.365-0.343-0.706-0.352-1.073-0.006c-0.469,0.441-0.936,0.885-1.381,1.349
		c-0.217,0.226-0.359,0.205-0.573-0.002C63.156,308.776,63.147,308.781,63.549,307.698z M55.515,304.635
		c0.424-0.275,0.898-0.409,1.37-0.559c0.428-0.135,0.615-0.397,0.507-0.773c-0.108-0.382-0.409-0.449-0.764-0.402
		c-0.367,0.05-0.701,0.197-1.044,0.319c-0.093,0.033-0.196,0.108-0.282,0.03c-0.09-0.081-0.018-0.196,0.009-0.289
		c0.135-0.464,0.297-0.915,0.629-1.285c0.429-0.479,0.878-0.576,1.451-0.281c0.873,0.45,1.388,1.234,1.841,2.058
		c0.885,1.613,1.295,3.364,1.439,5.185c0.029,0.362-0.384,0.97-0.724,1.106c-0.192,0.077-0.265-0.073-0.362-0.165
		c-0.424-0.402-0.843-0.811-1.262-1.219c-0.518-0.504-0.787-0.51-1.295-0.023c-0.296,0.283-0.605,0.553-0.884,0.852
		c-0.261,0.28-0.365,0.186-0.441-0.13c-0.062-0.254-0.132-0.509-0.229-0.751c-0.132-0.329-0.007-0.51,0.288-0.648
		c0.754-0.354,1.533-0.633,2.352-0.796c0.128-0.026,0.256-0.063,0.378-0.11c0.342-0.13,0.472-0.397,0.392-0.737
		c-0.085-0.36-0.365-0.485-0.707-0.423c-0.92,0.168-1.814,0.437-2.659,0.833c-0.33,0.155-0.408,0.056-0.431-0.243
		c-0.017-0.218-0.041-0.436-0.062-0.654C54.95,305.098,55.181,304.851,55.515,304.635z M69.793,323.864
		c-5.154-0.007-10.308-0.006-15.462-0.001c-0.325,0.001-0.463-0.095-0.462-0.455c0.011-4.29,0.005-8.58,0.008-12.87
		c0-0.111-0.059-0.264,0.06-0.323c0.155-0.076,0.216,0.104,0.307,0.184c0.229,0.203,0.444,0.422,0.674,0.625
		c0.41,0.363,0.684,0.362,1.095-0.023c0.459-0.429,0.912-0.866,1.354-1.313c0.184-0.186,0.308-0.24,0.522-0.022
		c0.461,0.467,0.953,0.905,1.433,1.354c0.398,0.371,0.702,0.368,1.1-0.014c0.442-0.425,0.896-0.84,1.319-1.284
		c0.244-0.256,0.433-0.226,0.659-0.003c0.396,0.391,0.8,0.772,1.196,1.162c0.564,0.556,0.792,0.558,1.349,0.019
		c0.43-0.416,0.883-0.808,1.304-1.233c0.213-0.214,0.344-0.169,0.534,0.024c0.44,0.449,0.9,0.877,1.355,1.312
		c0.39,0.371,0.665,0.39,1.064,0.046c0.352-0.302,0.685-0.627,1.122-1.03c0,0.262,0,0.402,0,0.543c0,4.246-0.006,8.492,0.009,12.738
		C70.335,323.725,70.205,323.865,69.793,323.864z"/>
</g>
<g id="Layer_2">
	<rect x="75.667" y="301.333" fill-rule="evenodd" clip-rule="evenodd" fill="none" width="362" height="71"/>
	<text transform="matrix(1 0 0 1 75.6665 310.2158)"><tspan x="0" y="0" font-family="'LeelawadeeUI-Bold'" font-size="12">Shopping</tspan><tspan x="0" y="14.4" font-family="'LeelawadeeUI'" font-size="12">Mate</tspan></text>
</g>
</svg>
